#!OML:ASF F:\VICON\USERDATA\INSTALL\Justin_Nancy\Justin_Nancy.ASF
:FULLY-SPECIFIED
:DEGREES
134
root 3.67062 17.2357 13.4176 3.85798 45.6695 -1.30086
lowerback 11.3015 1.309 1.4302
upperback 1.02264 2.04002 1.74056
thorax -5.28209 1.00145 0.694392
lowerneck -20.7601 -5.2317 -8.41347
upperneck 12.8417 -6.07334 7.86833
head 7.86198 -2.54543 3.20952
rclavicle -1.34677e-013 2.38542e-014
rhumerus -39.0014 19.4578 -89.1888
rradius 108.086
rwrist -7.92449
rhand -16.2791 24.1314
rfingers 7.12502
rthumb 9.93088 -5.6144
lclavicle -1.34677e-013 2.38542e-014
lhumerus -44.9482 -14.3332 90.0174
lradius 109.179
lwrist 21.7445
lhand -17.73 10.1345
lfingers 7.12502
lthumb 8.53087 39.9422
rfemur -5.67313 -3.68251 22.06
rtibia 73.9705
rfoot 16.4274 -4.11419
rtoes 11.2725
lfemur -27.5382 2.02091 -25.5086
ltibia 38.6332
lfoot -11.2696 -10.1744
ltoes 7.83283
135
root 3.84799 17.1383 13.7338 4.64404 45.3388 0.281711
lowerback 11.5502 1.49523 -0.298512
upperback 1.28182 2.05642 1.53018
thorax -5.2009 1.04451 1.4423
lowerneck -21.0305 -5.38184 -8.66246
upperneck 12.8074 -6.22946 8.13132
head 7.92712 -2.59977 3.31411
rclavicle -4.25399e-014 9.54166e-015
rhumerus -39.7187 19.1463 -89.7694
rradius 107.694
rwrist -8.48234
rhand -16.5026 24.2843
rfingers 7.12502
rthumb 9.71528 -5.47162
lclavicle -4.25399e-014 9.54166e-015
lhumerus -43.2713 -14.9227 89.4658
lradius 109.61
lwrist 22.4229
lhand -17.6781 10.0165
lfingers 7.12502
lthumb 8.58099 39.8221
rfemur -7.18395 -4.20125 20.5949
rtibia 77.2615
rfoot 15.0857 -3.91467
rtoes 9.86682
lfemur -26.1277 1.80993 -26.4566
ltibia 39.8198
lfoot -13.7186 -8.32905
ltoes 8.46203
136
root 4.03356 17.0508 14.0307 5.911 44.8623 2.15142
lowerback 11.5592 1.66836 -2.05081
upperback 1.45843 2.04499 1.20244
thorax -5.06878 1.06902 2.09129
lowerneck -21.4605 -5.52407 -9.16775
upperneck 12.9534 -6.33551 8.61259
head 8.09261 -2.61661 3.54127
rclavicle -1.0138e-014 1.15295e-014
rhumerus -40.4951 19.0067 -90.403
rradius 107.164
rwrist -7.97837
rhand -17.9769 24.4918
rfingers 7.12502
rthumb 8.29259 -5.32543
lclavicle -1.0138e-014 1.15295e-014
lhumerus -41.2797 -15.145 88.7783
lradius 109.733
lwrist 22.762
lhand -16.8037 9.8321
lfingers 7.12502
lthumb 9.42473 39.6014
rfemur -9.2235 -4.64522 18.779
rtibia 80.3992
rfoot 13.9588 -3.3411
rtoes 8.30644
lfemur -24.9068 1.52336 -27.827
ltibia 40.6263
lfoot -16.0018 -6.48841
ltoes 7.50548
137
root 4.22217 16.9705 14.3169 7.15724 44.27 3.81302
lowerback 11.4905 1.84547 -3.49852
upperback 1.53462 2.07707 0.769912
thorax -4.98699 1.10651 2.45222
lowerneck -21.6397 -5.55754 -9.2521
upperneck 12.9371 -6.40294 8.95365
head 8.14026 -2.61359 3.66043
rclavicle -3.05134e-014 -7.95139e-016
rhumerus -41.1751 18.0908 -90.9035
rradius 106.66
rwrist -6.21441
rhand -18.2436 24.4664
rfingers 7.12502
rthumb 8.03526 -5.36081
lclavicle -3.05134e-014 -7.95139e-016
lhumerus -39.0408 -15.2982 87.9126
lradius 109.555
lwrist 22.9916
lhand -16.3935 10.1824
lfingers 7.12502
lthumb 9.82054 39.9333
rfemur -11.5786 -5.11318 16.961
rtibia 83.2925
rfoot 13.0798 -2.67287
rtoes 8.39737
lfemur -23.8276 1.02426 -29.0778
ltibia 41.2288
lfoot -17.6925 -3.99876
ltoes 6.24966
138
root 4.40789 16.8914 14.5763 8.04143 43.6113 5.00618
lowerback 11.6397 1.96478 -4.41053
upperback 1.59049 2.09723 0.415212
thorax -5.03132 1.13055 2.58785
lowerneck -21.6824 -5.49737 -9.0936
upperneck 12.6909 -6.33577 8.88911
head 8.05059 -2.58026 3.62007
rclavicle 4.03533e-014 -9.54166e-015
rhumerus -41.7049 16.8088 -91.1951
rradius 106.5
rwrist -6.02208
rhand -15.9581 24.4405
rfingers 7.12502
rthumb 10.2406 -5.29027
lclavicle 4.03533e-014 -9.54166e-015
lhumerus -37.1361 -15.327 87.0653
lradius 109.612
lwrist 23.2207
lhand -17.0799 10.669
lfingers 7.12502
lthumb 9.15828 40.4502
rfemur -14.2103 -5.52795 15.4281
rtibia 86.0604
rfoot 12.3168 -2.247
rtoes 9.92826
lfemur -22.8375 0.19133 -29.9445
ltibia 41.7649
lfoot -18.9202 -1.70568
ltoes 4.6526
139
root 4.58843 16.8307 14.8267 8.46799 43.1482 5.56454
lowerback 11.9686 1.96149 -4.81795
upperback 1.56361 2.01351 0.235029
thorax -5.24298 1.10025 2.633
lowerneck -21.7794 -5.40327 -9.04787
upperneck 12.528 -6.17349 8.73789
head 7.98912 -2.51487 3.58202
rclavicle 6.41081e-014 2.66371e-014
rhumerus -42.3823 15.7491 -91.5755
rradius 106.54
rwrist -7.08943
rhand -13.2883 24.5022
rfingers 7.12502
rthumb 12.8153 -5.08448
lclavicle 6.41081e-014 2.66371e-014
lhumerus -35.6072 -15.0837 86.4415
lradius 109.712
lwrist 23.1202
lhand -17.7717 10.7003
lfingers 7.12502
lthumb 8.49065 40.5096
rfemur -16.9552 -5.71897 14.5727
rtibia 88.5258
rfoot 11.4071 -2.63296
rtoes 14.7116
lfemur -21.9165 -0.458381 -30.2676
ltibia 42.3097
lfoot -20.1376 -0.505365
ltoes 2.72983
140
root 4.7693 16.7785 15.0689 8.86818 42.826 6.05446
lowerback 12.2164 1.87491 -5.08997
upperback 1.55587 1.84155 0.0959013
thorax -5.3782 1.0231 2.66301
lowerneck -21.7849 -5.24404 -9.02199
upperneck 12.3058 -5.92906 8.62926
head 7.88771 -2.40966 3.57382
rclavicle 6.70898e-014 -6.36111e-015
rhumerus -43.3046 14.9432 -92.1126
rradius 106.622
rwrist -7.20418
rhand -12.9878 24.2599
rfingers 7.12502
rthumb 13.105 -5.30833
lclavicle 6.70898e-014 -6.36111e-015
lhumerus -34.0139 -14.504 85.9917
lradius 109.596
lwrist 22.708
lhand -17.5566 10.1993
lfingers 7.12502
lthumb 8.69828 40.0001
rfemur -19.6967 -5.96841 13.8739
rtibia 90.6457
rfoot 10.3846 -2.86594
rtoes 17.967
lfemur -21.1072 -0.992671 -30.5954
ltibia 42.8977
lfoot -21.0339 0.653427
ltoes 0.913241
141
root 4.95013 16.7269 15.3193 8.96828 42.5345 5.97236
lowerback 12.207 1.77096 -4.97612
upperback 1.5804 1.72104 0.110715
thorax -5.33375 0.960317 2.63577
lowerneck -21.9264 -5.11773 -8.93551
upperneck 12.2734 -5.72741 8.40377
head 7.87047 -2.32913 3.50981
rclavicle 6.19214e-014 -5.96354e-015
rhumerus -44.0773 14.3714 -92.636
rradius 106.614
rwrist -7.24235
rhand -13.7031 23.8374
rfingers 7.12502
rthumb 12.4154 -5.77389
lclavicle 6.19214e-014 -5.96354e-015
lhumerus -32.8885 -14.1826 85.5316
lradius 109.879
lwrist 22.527
lhand -17.5866 9.68798
lfingers 7.12502
lthumb 8.66933 39.49
rfemur -22.2328 -6.39052 13.9067
rtibia 92.1693
rfoot 9.55926 -2.55633
rtoes 15.6739
lfemur -20.3679 -1.26413 -30.4604
ltibia 43.4169
lfoot -21.7464 1.71869
ltoes -1.04876
142
root 5.13041 16.6867 15.5783 8.83939 41.8718 5.70795
lowerback 12.2232 1.78792 -4.91906
upperback 1.61797 1.7549 0.182777
thorax -5.30646 0.97512 2.67392
lowerneck -22.1831 -4.98256 -8.93016
upperneck 12.4402 -5.48633 8.15124
head 7.93726 -2.23381 3.45571
rclavicle 4.97956e-014 -3.37934e-014
rhumerus -44.5862 14.0716 -92.9181
rradius 106.61
rwrist -7.93603
rhand -13.6304 23.4237
rfingers 7.12502
rthumb 12.4854 -6.1833
lclavicle 4.97956e-014 -3.37934e-014
lhumerus -32.2339 -13.9182 85.0551
lradius 110.531
lwrist 22.6413
lhand -17.7442 9.37435
lfingers 7.12502
lthumb 8.51722 39.1826
rfemur -24.7984 -6.31581 14.1625
rtibia 93.3215
rfoot 8.47911 -2.31845
rtoes 13.07
lfemur -19.4145 -0.839847 -30.196
ltibia 43.7615
lfoot -22.543 2.06713
ltoes -2.71595
143
root 5.32369 16.6841 15.8378 8.91684 41.412 5.70515
lowerback 12.0849 1.64847 -5.07234
upperback 1.69122 1.56445 0.260431
thorax -5.14231 0.880466 2.87841
lowerneck -22.3319 -4.63391 -8.64569
upperneck 12.4398 -5.01498 7.76431
head 7.8992 -2.03214 3.3426
rclavicle -7.27552e-014 -1.59028e-015
rhumerus -45.0315 13.9953 -93.1424
rradius 106.786
rwrist -8.99029
rhand -13.145 23.1715
rfingers 7.12502
rthumb 12.9534 -6.40644
lclavicle -7.27552e-014 -1.59028e-015
lhumerus -31.2529 -12.8478 84.8434
lradius 110.892
lwrist 22.7654
lhand -17.6221 9.49219
lfingers 7.12502
lthumb 8.63506 39.2956
rfemur -27.1634 -6.38483 14.2722
rtibia 93.848
rfoot 7.51395 -2.05369
rtoes 11.6917
lfemur -18.163 -0.598585 -30.1186
ltibia 43.7831
lfoot -23.0932 2.15863
ltoes -2.53714
144
root 5.52297 16.6997 16.098 9.03599 41.1499 5.7545
lowerback 12.008 1.39009 -5.12385
upperback 1.68331 1.22261 0.317272
thorax -5.0797 0.712427 3.02578
lowerneck -22.317 -4.27675 -8.51249
upperneck 12.4894 -4.53018 7.52304
head 7.86107 -1.82065 3.30645
rclavicle 2.00773e-014 6.75868e-015
rhumerus -45.7748 14.0754 -93.6268
rradius 107.137
rwrist -9.86407
rhand -13.0885 23.0204
rfingers 7.12502
rthumb 13.0079 -6.55406
lclavicle 2.00773e-014 6.75868e-015
lhumerus -30.4673 -11.6586 84.7306
lradius 111.251
lwrist 22.8416
lhand -17.8407 9.35543
lfingers 7.12502
lthumb 8.42404 39.1674
rfemur -29.1464 -6.75332 14.4561
rtibia 93.7577
rfoot 6.85059 -1.53517
rtoes 9.90305
lfemur -16.7084 -0.602628 -30.1022
ltibia 43.5467
lfoot -23.2609 2.85715
ltoes -3.81237
